<svg width="664" height="757" viewBox="0 0 664 757" fill="none" xmlns="http://www.w3.org/2000/svg">
<path d="M425.333 8.00001C418 12.4 410.267 17.0667 408 18.4C405.867 19.8667 392 28.1333 377.333 36.8C336.133 61.0667 294.133 86 285.333 91.3333C280.933 94 265.467 103.2 251.067 111.733L224.8 127.2L232.4 131.867C236.533 134.4 246.267 140.133 254 144.667C261.733 149.2 274.933 156.933 283.333 162C291.733 166.933 305.333 174.933 313.333 179.6C321.467 184.4 334.933 192.4 343.333 197.2C351.733 202.133 365.6 210.267 374 215.333C406 234.267 441.067 254.667 441.6 254.667C442 254.667 445.6 252.667 449.733 250.133C466 240.4 484.8 229.333 500.667 220C509.867 214.533 526 204.933 536.667 198.667C547.333 192.267 564.667 182 575.333 175.733C667.6 121.2 660.267 126 656.4 123.6C654.667 122.533 640.4 114.267 624.667 105.333C608.933 96.2667 590 85.6 582.667 81.3333C575.333 77.2 562.4 69.8667 554 65.0667C545.467 60.2667 530.533 51.7333 520.667 46C510.8 40.2667 491.867 29.4667 478.667 22C465.467 14.4 451.467 6.40001 447.6 4.13334C443.733 1.86667 440.133 7.06315e-06 439.6 7.06315e-06C439.067 0.13334 432.667 3.73334 425.333 8.00001Z" fill="#16A34A"/>
<path d="M206.667 138.533C199.333 142.667 185.6 150.4 176 155.6C166.533 160.8 152.4 168.667 144.667 173.067C116.267 189.067 85.0667 206.4 77.3333 210.533C72.9333 212.933 68.4 215.333 67.3333 216C66.2667 216.8 61.4667 219.467 56.6667 222.133C51.8667 224.8 44.6667 228.8 40.6667 231.067C36.6667 233.333 27.3333 238.533 20 242.667C12.5333 246.667 5.6 250.533 4.4 251.333C2.53333 252.533 2.13333 264.133 1.2 360.667C0.533333 420 0 477.067 0 487.333V506L14 513.867C33.7333 524.933 57.8667 538.4 77.7333 549.467C87.0667 554.667 102.533 563.333 112 568.667C121.6 574 149.867 589.733 175.067 603.867C200.267 617.867 221.067 629.333 221.467 629.333C221.733 629.333 222 517.067 222 380C222 242.8 221.6 130.667 221.067 130.8C220.4 130.8 214 134.4 206.667 138.533Z" fill="#16A34A"/>
<path d="M650.667 385.6C647.067 387.867 628.133 398.8 608.667 410C589.2 421.2 561.067 437.333 546 446C530.933 454.667 504.533 469.867 487.333 479.733C431.067 512.133 393.467 533.733 384.667 538.667C374.133 544.667 276.267 600.933 251.333 615.333C241.467 621.067 231.067 627.2 228.133 628.8L223.067 631.733L226.133 633.733C227.867 634.8 247.6 646 270 658.667C292.4 671.333 313.333 683.333 316.667 685.333C320 687.333 330.533 693.333 340 698.667C349.6 704.133 364.267 712.533 372.667 717.467C387.867 726.267 434.533 752.8 440.4 755.867C443.2 757.333 444.8 756.8 456.4 749.867C463.6 745.6 475.067 738.8 482 734.667C488.933 730.4 502.133 722.667 511.333 717.333C520.533 712 532.267 705.067 537.333 702C550.133 694.267 616.4 655.067 636 643.6C644.8 638.4 654.533 632.667 657.733 630.8L663.467 627.333L662.667 613.333C661.867 597.733 659.467 448.8 659.333 407.6C659.333 393.2 658.933 381.333 658.4 381.467C657.733 381.467 654.4 383.333 650.667 385.6Z" fill="#16A34A"/>
</svg>
