<svg width="1049" height="240" viewBox="0 0 1049 240" fill="none" xmlns="http://www.w3.org/2000/svg">
<path d="M97.9623 29.8426C96.2733 30.856 94.4922 31.9308 93.9701 32.2379C93.4788 32.5757 90.285 34.4797 86.907 36.4758C77.4179 42.0648 67.7444 47.8075 65.7176 49.0358C64.7042 49.65 61.142 51.769 57.8254 53.7344L51.7756 57.2966L53.5261 58.3714C54.478 58.9549 56.7198 60.2754 58.501 61.3195C60.2821 62.3637 63.3223 64.1448 65.257 65.3117C67.1917 66.448 70.324 68.2905 72.1666 69.3654C74.0398 70.4709 77.1415 72.3134 79.0762 73.419C81.0108 74.5552 84.2046 76.4285 86.1393 77.5954C93.5095 81.9561 101.586 86.6547 101.709 86.6547C101.801 86.6547 102.63 86.194 103.582 85.6105C107.329 83.3688 111.659 80.8199 115.313 78.6703C117.432 77.4112 121.148 75.2001 123.605 73.7568C126.061 72.2827 130.053 69.9181 132.51 68.4748C153.761 55.9147 152.072 57.0202 151.181 56.4675C150.782 56.2218 147.496 54.3178 143.873 52.2603C140.249 50.1721 135.888 47.7153 134.199 46.7326C132.51 45.7807 129.531 44.0917 127.597 42.9861C125.631 41.8806 122.192 39.9152 119.919 38.5947C117.647 37.2742 113.286 34.7867 110.246 33.067C107.206 31.3166 103.981 29.4741 103.091 28.952C102.2 28.4299 101.371 28 101.248 28C101.125 28.0307 99.6513 28.8599 97.9623 29.8426Z" fill="#16A34A"/>
<path d="M47.5993 59.9069C45.9103 60.8589 42.7473 62.64 40.5362 63.8377C38.3558 65.0353 35.1007 66.8472 33.3195 67.8606C26.7785 71.5457 19.5925 75.5379 17.8114 76.4899C16.798 77.0426 15.7538 77.5954 15.5082 77.749C15.2625 77.9332 14.157 78.5474 13.0514 79.1616C11.9459 79.7758 10.2876 80.697 9.36632 81.2191C8.44504 81.7412 6.29539 82.9388 4.60639 83.8908C2.88667 84.8121 1.28979 85.7027 1.01341 85.8869C0.583476 86.1633 0.491348 88.835 0.276383 111.068C0.122837 124.734 0 137.878 0 140.242V144.542L3.22447 146.353C7.76944 148.902 13.3278 152.004 17.9035 154.553C20.0531 155.75 23.6154 157.747 25.7958 158.975C28.0068 160.203 34.5172 163.827 40.3212 167.082C46.1253 170.307 50.9159 172.948 51.0081 172.948C51.0695 172.948 51.1309 147.09 51.1309 115.521C51.1309 83.9215 51.0388 58.095 50.9159 58.1258C50.7624 58.1258 49.2883 58.9549 47.5993 59.9069Z" fill="#16A34A"/>
<path d="M149.861 116.811C149.032 117.333 144.671 119.851 140.188 122.431C135.704 125.011 129.225 128.726 125.754 130.722C122.284 132.719 116.204 136.219 112.242 138.492C99.2831 145.954 90.6231 150.929 88.5963 152.065C86.1703 153.447 63.6297 166.407 57.8871 169.723C55.6146 171.044 53.2193 172.456 52.5437 172.825L51.3767 173.5L52.083 173.961C52.4822 174.207 57.0272 176.786 62.1864 179.704C67.3455 182.621 72.1669 185.385 72.9346 185.846C73.7023 186.306 76.1284 187.688 78.3087 188.916C80.5198 190.176 83.8978 192.11 85.8325 193.246C89.3333 195.273 100.082 201.384 101.433 202.091C102.078 202.429 102.446 202.306 105.118 200.709C106.776 199.726 109.417 198.16 111.014 197.208C112.611 196.225 115.651 194.444 117.77 193.216C119.889 191.987 122.591 190.39 123.758 189.684C126.706 187.903 141.969 178.875 146.483 176.234C148.51 175.036 150.752 173.715 151.489 173.285L152.809 172.487L152.625 169.263C152.441 165.67 151.888 131.367 151.857 121.878C151.857 118.562 151.765 115.828 151.642 115.859C151.489 115.859 150.721 116.289 149.861 116.811Z" fill="#16A34A"/>
<path d="M204.52 54.06V178.26C204.52 183.3 205.42 186.72 207.22 188.52C209.14 190.32 212.32 191.22 216.76 191.22V195C214.6 194.88 211.3 194.76 206.86 194.64C202.54 194.4 198.1 194.28 193.54 194.28C189.1 194.28 184.54 194.4 179.86 194.64C175.3 194.76 171.88 194.88 169.6 195V191.22C174.04 191.22 177.16 190.32 178.96 188.52C180.88 186.72 181.84 183.3 181.84 178.26V75.66C181.84 70.26 181 66.3 179.32 63.78C177.64 61.14 174.4 59.82 169.6 59.82V56.04C173.44 56.4 177.16 56.58 180.76 56.58C185.32 56.58 189.58 56.4 193.54 56.04C197.5 55.56 201.16 54.9 204.52 54.06ZM250.192 196.26C245.032 196.26 240.652 195.3 237.052 193.38C233.452 191.34 230.752 188.64 228.952 185.28C227.152 181.8 226.252 177.96 226.252 173.76C226.252 168.6 227.452 164.4 229.852 161.16C232.252 157.8 235.312 155.16 239.032 153.24C242.872 151.2 246.892 149.52 251.092 148.2C255.292 146.76 259.252 145.44 262.972 144.24C266.692 142.92 269.752 141.42 272.152 139.74C274.552 138.06 275.752 135.84 275.752 133.08V119.94C275.752 116.1 275.152 112.98 273.952 110.58C272.872 108.06 271.192 106.2 268.912 105C266.752 103.68 263.992 103.02 260.632 103.02C258.112 103.02 255.472 103.38 252.712 104.1C249.952 104.82 247.672 106.2 245.872 108.24C248.992 109.08 251.392 110.64 253.072 112.92C254.872 115.2 255.772 117.96 255.772 121.2C255.772 124.92 254.512 127.86 251.992 130.02C249.592 132.06 246.532 133.08 242.812 133.08C238.852 133.08 235.852 131.82 233.812 129.3C231.772 126.78 230.752 123.84 230.752 120.48C230.752 117.12 231.592 114.36 233.272 112.2C234.952 109.92 237.292 107.88 240.292 106.08C243.292 104.04 247.132 102.42 251.812 101.22C256.492 100.02 261.592 99.42 267.112 99.42C272.392 99.42 277.072 100.02 281.152 101.22C285.232 102.3 288.712 104.28 291.592 107.16C294.472 109.92 296.332 113.34 297.172 117.42C298.012 121.5 298.432 126.48 298.432 132.36V181.68C298.432 184.68 298.792 186.84 299.512 188.16C300.232 189.36 301.372 189.96 302.932 189.96C304.132 189.96 305.272 189.66 306.352 189.06C307.432 188.46 308.632 187.62 309.952 186.54L311.932 189.6C309.292 191.64 306.532 193.26 303.652 194.46C300.772 195.66 297.292 196.26 293.212 196.26C289.012 196.26 285.652 195.66 283.132 194.46C280.732 193.26 278.932 191.52 277.732 189.24C276.652 186.96 276.052 184.26 275.932 181.14C273.052 185.94 269.512 189.66 265.312 192.3C261.112 194.94 256.072 196.26 250.192 196.26ZM260.992 186.18C263.872 186.18 266.512 185.4 268.912 183.84C271.432 182.28 273.712 179.94 275.752 176.82V140.46C274.552 142.26 272.812 143.88 270.532 145.32C268.372 146.76 266.032 148.2 263.512 149.64C260.992 151.08 258.592 152.76 256.312 154.68C254.152 156.48 252.292 158.76 250.732 161.52C249.292 164.16 248.572 167.58 248.572 171.78C248.572 176.46 249.712 180.06 251.992 182.58C254.272 184.98 257.272 186.18 260.992 186.18ZM339.426 56.04C343.746 56.04 347.286 57.24 350.046 59.64C352.806 62.04 354.186 65.22 354.186 69.18C354.186 73.14 352.806 76.32 350.046 78.72C347.286 81.12 343.746 82.32 339.426 82.32C335.106 82.32 331.566 81.12 328.806 78.72C326.046 76.32 324.666 73.14 324.666 69.18C324.666 65.22 326.046 62.04 328.806 59.64C331.566 57.24 335.106 56.04 339.426 56.04ZM352.026 99.96V178.26C352.026 183.3 352.926 186.72 354.726 188.52C356.646 190.32 359.826 191.22 364.266 191.22V195C362.106 194.88 358.806 194.76 354.366 194.64C349.926 194.4 345.426 194.28 340.866 194.28C336.426 194.28 331.926 194.4 327.366 194.64C322.806 194.76 319.386 194.88 317.106 195V191.22C321.546 191.22 324.666 190.32 326.466 188.52C328.386 186.72 329.346 183.3 329.346 178.26V121.74C329.346 116.22 328.446 112.2 326.646 109.68C324.966 107.04 321.786 105.72 317.106 105.72V101.94C320.946 102.3 324.666 102.48 328.266 102.48C332.706 102.48 336.906 102.3 340.866 101.94C344.946 101.46 348.666 100.8 352.026 99.96ZM435.837 99.42C440.517 99.42 444.417 100.08 447.537 101.4C450.777 102.72 453.297 104.4 455.097 106.44C457.257 108.72 458.757 111.78 459.597 115.62C460.437 119.34 460.857 124.08 460.857 129.84V178.26C460.857 183.3 461.697 186.72 463.377 188.52C465.177 190.32 468.177 191.22 472.377 191.22V195C470.217 194.88 466.977 194.76 462.657 194.64C458.337 194.4 454.137 194.28 450.057 194.28C445.737 194.28 441.537 194.4 437.457 194.64C433.497 194.76 430.497 194.88 428.457 195V191.22C431.937 191.22 434.397 190.32 435.837 188.52C437.397 186.72 438.177 183.3 438.177 178.26V123.72C438.177 120.48 437.937 117.6 437.457 115.08C436.977 112.44 435.957 110.4 434.397 108.96C432.837 107.4 430.437 106.62 427.197 106.62C423.477 106.62 420.117 107.7 417.117 109.86C414.117 112.02 411.717 115.02 409.917 118.86C408.237 122.58 407.397 126.78 407.397 131.46V178.26C407.397 183.3 408.117 186.72 409.557 188.52C410.997 190.32 413.517 191.22 417.117 191.22V195C415.077 194.88 412.077 194.76 408.117 194.64C404.277 194.4 400.317 194.28 396.237 194.28C391.797 194.28 387.297 194.4 382.737 194.64C378.177 194.76 374.757 194.88 372.477 195V191.22C376.917 191.22 380.037 190.32 381.837 188.52C383.757 186.72 384.717 183.3 384.717 178.26V121.56C384.717 116.16 383.817 112.2 382.017 109.68C380.337 107.04 377.157 105.72 372.477 105.72V101.94C376.317 102.3 380.037 102.48 383.637 102.48C388.077 102.48 392.277 102.3 396.237 101.94C400.317 101.46 404.037 100.8 407.397 99.96V117.96C410.397 111.36 414.417 106.62 419.457 103.74C424.497 100.86 429.957 99.42 435.837 99.42ZM490.017 99.42C494.697 99.42 498.597 100.08 501.717 101.4C504.957 102.72 507.477 104.4 509.277 106.44C511.437 108.72 512.937 111.78 513.777 115.62C514.617 119.34 515.037 124.08 515.037 129.84V178.26C515.037 183.3 515.937 186.72 517.737 188.52C519.657 190.32 522.837 191.22 527.277 191.22V195C525.117 194.88 521.757 194.76 517.197 194.64C512.757 194.4 508.437 194.28 504.237 194.28C499.917 194.28 495.717 194.4 491.637 194.64C487.677 194.76 484.677 194.88 482.637 195V191.22C486.117 191.22 488.577 190.32 490.017 188.52C491.577 186.72 492.357 183.3 492.357 178.26V123.72C492.357 120.48 492.057 117.6 491.457 115.08C490.977 112.44 489.897 110.4 488.217 108.96C486.537 107.4 484.017 106.62 480.657 106.62C476.937 106.62 473.577 107.76 470.577 110.04C467.577 112.32 465.177 115.38 463.377 119.22C461.697 122.94 460.797 127.14 460.677 131.82L459.777 118.86C463.017 111.42 467.337 106.32 472.737 103.56C478.137 100.8 483.897 99.42 490.017 99.42Z" fill="black"/>
<path d="M536.171 67.56C539.171 67.68 543.011 67.8 547.691 67.92C552.371 68.04 557.051 68.1 561.731 68.1C567.611 68.1 573.191 68.04 578.471 67.92C583.751 67.8 587.471 67.74 589.631 67.74C600.431 67.74 609.311 69.06 616.271 71.7C623.351 74.22 628.631 77.82 632.111 82.5C635.591 87.18 637.331 92.7 637.331 99.06C637.331 103.02 636.551 107.1 634.991 111.3C633.431 115.38 630.731 119.16 626.891 122.64C623.051 126.12 617.771 129 611.051 131.28C604.451 133.44 595.991 134.52 585.671 134.52H568.391V130.92H583.871C591.431 130.92 597.191 129.6 601.151 126.96C605.231 124.2 607.931 120.6 609.251 116.16C610.691 111.6 611.411 106.56 611.411 101.04C611.411 91.56 609.551 84.24 605.831 79.08C602.111 73.8 595.691 71.16 586.571 71.16C581.651 71.16 578.411 72.18 576.851 74.22C575.411 76.26 574.691 80.4 574.691 86.64V175.92C574.691 180.24 575.051 183.48 575.771 185.64C576.491 187.8 577.811 189.24 579.731 189.96C581.771 190.68 584.711 191.16 588.551 191.4V195C585.551 194.76 581.711 194.64 577.031 194.64C572.351 194.52 567.611 194.46 562.811 194.46C557.411 194.46 552.371 194.52 547.691 194.64C543.011 194.64 539.171 194.76 536.171 195V191.4C540.131 191.16 543.071 190.68 544.991 189.96C547.031 189.24 548.351 187.8 548.951 185.64C549.671 183.48 550.031 180.24 550.031 175.92V86.64C550.031 82.2 549.671 78.96 548.951 76.92C548.351 74.76 547.031 73.32 544.991 72.6C543.071 71.76 540.131 71.28 536.171 71.16V67.56ZM568.391 131.46C574.031 131.7 578.711 132 582.431 132.36C586.271 132.6 589.511 132.84 592.151 133.08C594.911 133.32 597.371 133.62 599.531 133.98C609.491 134.94 616.811 137.28 621.491 141C626.291 144.6 629.471 150.12 631.031 157.56L635.171 176.1C636.251 181.02 637.391 184.56 638.591 186.72C639.911 188.76 641.771 189.72 644.171 189.6C645.851 189.6 647.291 189.18 648.491 188.34C649.691 187.38 650.891 186.12 652.091 184.56L654.611 186.72C651.611 190.44 648.431 193.2 645.071 195C641.711 196.68 637.451 197.52 632.291 197.52C626.531 197.52 621.671 196.2 617.711 193.56C613.751 190.8 611.051 185.64 609.611 178.08L606.191 160.08C605.231 155.04 604.091 150.6 602.771 146.76C601.571 142.92 599.891 139.92 597.731 137.76C595.571 135.6 592.391 134.52 588.191 134.52H568.751L568.391 131.46ZM678.508 56.04C682.828 56.04 686.368 57.24 689.128 59.64C691.888 62.04 693.268 65.22 693.268 69.18C693.268 73.14 691.888 76.32 689.128 78.72C686.368 81.12 682.828 82.32 678.508 82.32C674.188 82.32 670.648 81.12 667.888 78.72C665.128 76.32 663.748 73.14 663.748 69.18C663.748 65.22 665.128 62.04 667.888 59.64C670.648 57.24 674.188 56.04 678.508 56.04ZM691.108 99.96V178.26C691.108 183.3 692.008 186.72 693.808 188.52C695.728 190.32 698.908 191.22 703.348 191.22V195C701.188 194.88 697.888 194.76 693.448 194.64C689.008 194.4 684.508 194.28 679.948 194.28C675.508 194.28 671.008 194.4 666.448 194.64C661.888 194.76 658.468 194.88 656.188 195V191.22C660.628 191.22 663.748 190.32 665.548 188.52C667.468 186.72 668.428 183.3 668.428 178.26V121.74C668.428 116.22 667.528 112.2 665.728 109.68C664.048 107.04 660.868 105.72 656.188 105.72V101.94C660.028 102.3 663.748 102.48 667.348 102.48C671.788 102.48 675.988 102.3 679.948 101.94C684.028 101.46 687.748 100.8 691.108 99.96ZM797.779 54.06V175.38C797.779 180.78 798.679 184.8 800.479 187.44C802.279 189.96 805.459 191.22 810.019 191.22V195C806.299 194.64 802.579 194.46 798.859 194.46C794.419 194.46 790.219 194.64 786.259 195C782.299 195.36 778.579 196.02 775.099 196.98V75.66C775.099 70.26 774.199 66.3 772.399 63.78C770.719 61.14 767.539 59.82 762.859 59.82V56.04C766.699 56.4 770.419 56.58 774.019 56.58C778.579 56.58 782.839 56.4 786.799 56.04C790.759 55.56 794.419 54.9 797.779 54.06ZM754.759 99.42C760.039 99.42 764.779 100.44 768.979 102.48C773.179 104.52 776.299 107.94 778.339 112.74L776.179 114.54C774.499 111.06 772.219 108.48 769.339 106.8C766.459 105.12 763.219 104.28 759.619 104.28C753.139 104.28 747.919 107.94 743.959 115.26C740.119 122.46 738.199 133.56 738.199 148.56C738.199 158.64 738.979 166.8 740.539 173.04C742.099 179.16 744.319 183.6 747.199 186.36C750.199 189.12 753.739 190.5 757.819 190.5C762.139 190.5 766.039 188.76 769.519 185.28C772.999 181.68 775.039 176.58 775.639 169.98L776.899 175.02C775.339 182.34 772.399 187.92 768.079 191.76C763.759 195.6 758.059 197.52 750.979 197.52C743.779 197.52 737.359 195.78 731.719 192.3C726.199 188.7 721.879 183.3 718.759 176.1C715.759 168.78 714.259 159.54 714.259 148.38C714.259 137.46 716.059 128.4 719.659 121.2C723.259 113.88 728.119 108.42 734.239 104.82C740.359 101.22 747.199 99.42 754.759 99.42ZM852.282 228.84C845.202 228.84 838.782 228.18 833.022 226.86C827.262 225.54 822.702 223.56 819.342 220.92C815.982 218.4 814.302 215.16 814.302 211.2C814.302 207.36 815.982 203.94 819.342 200.94C822.702 197.94 827.622 195.66 834.102 194.1L835.362 196.98C833.082 198.3 831.342 200.1 830.142 202.38C828.942 204.66 828.342 207.06 828.342 209.58C828.342 214.74 830.682 218.7 835.362 221.46C840.162 224.34 846.522 225.78 854.442 225.78C859.842 225.78 864.822 225.06 869.382 223.62C873.942 222.18 877.602 219.96 880.362 216.96C883.122 213.96 884.502 210.24 884.502 205.8C884.502 202.08 883.122 198.96 880.362 196.44C877.722 193.92 872.382 192.66 864.342 192.66H852.462C848.022 192.66 843.942 192.18 840.222 191.22C836.622 190.26 833.742 188.7 831.582 186.54C829.422 184.38 828.342 181.38 828.342 177.54C828.342 172.86 830.262 168.66 834.102 164.94C837.942 161.1 843.942 157.38 852.102 153.78L854.082 155.4C851.082 156.96 848.382 158.64 845.982 160.44C843.702 162.24 842.562 164.52 842.562 167.28C842.562 171.12 845.202 173.04 850.482 173.04H870.822C877.062 173.04 882.582 173.82 887.382 175.38C892.302 176.94 896.202 179.4 899.082 182.76C901.962 186.12 903.402 190.56 903.402 196.08C903.402 201.84 901.542 207.18 897.822 212.1C894.102 217.14 888.462 221.16 880.902 224.16C873.462 227.28 863.922 228.84 852.282 228.84ZM853.902 156.66C847.422 156.66 841.542 155.7 836.262 153.78C831.102 151.74 827.022 148.62 824.022 144.42C821.022 140.1 819.522 134.64 819.522 128.04C819.522 121.44 821.022 116.04 824.022 111.84C827.022 107.64 831.102 104.52 836.262 102.48C841.542 100.44 847.422 99.42 853.902 99.42C860.502 99.42 866.382 100.44 871.542 102.48C876.702 104.52 880.782 107.64 883.782 111.84C886.782 116.04 888.282 121.44 888.282 128.04C888.282 134.64 886.782 140.1 883.782 144.42C880.782 148.62 876.702 151.74 871.542 153.78C866.382 155.7 860.502 156.66 853.902 156.66ZM853.902 153.42C857.502 153.42 860.322 151.62 862.362 148.02C864.522 144.3 865.602 137.64 865.602 128.04C865.602 118.44 864.522 111.84 862.362 108.24C860.322 104.52 857.502 102.66 853.902 102.66C850.302 102.66 847.422 104.52 845.262 108.24C843.222 111.84 842.202 118.44 842.202 128.04C842.202 137.64 843.222 144.3 845.262 148.02C847.422 151.62 850.302 153.42 853.902 153.42ZM881.082 114.72L877.662 113.46C879.462 109.02 882.402 105.3 886.482 102.3C890.562 99.18 894.882 97.62 899.442 97.62C902.922 97.62 905.622 98.58 907.542 100.5C909.582 102.42 910.602 105.12 910.602 108.6C910.602 112.2 909.642 114.84 907.722 116.52C905.802 118.2 903.702 119.04 901.422 119.04C899.382 119.04 897.522 118.38 895.842 117.06C894.162 115.62 893.202 113.46 892.962 110.58C892.722 107.58 893.682 103.86 895.842 99.42L897.642 100.14C892.962 101.94 889.482 103.92 887.202 106.08C884.922 108.24 882.882 111.12 881.082 114.72ZM959.067 99.42C969.627 99.42 977.907 102.6 983.907 108.96C989.907 115.32 992.907 125.46 992.907 139.38H932.247L932.067 135.96H972.027C972.267 130.08 971.907 124.68 970.947 119.76C969.987 114.72 968.427 110.7 966.267 107.7C964.227 104.7 961.527 103.2 958.167 103.2C953.607 103.2 949.647 105.9 946.287 111.3C942.927 116.58 940.827 125.28 939.987 137.4L940.707 138.48C940.467 140.04 940.287 141.72 940.167 143.52C940.167 145.32 940.167 147.12 940.167 148.92C940.167 157.2 941.367 164.04 943.767 169.44C946.167 174.84 949.287 178.8 953.127 181.32C956.967 183.84 960.927 185.1 965.007 185.1C967.767 185.1 970.587 184.68 973.467 183.84C976.347 183 979.167 181.44 981.927 179.16C984.687 176.88 987.207 173.64 989.487 169.44L992.907 170.88C991.587 175.08 989.367 179.28 986.247 183.48C983.247 187.56 979.347 190.92 974.547 193.56C969.747 196.2 964.107 197.52 957.627 197.52C949.467 197.52 942.267 195.72 936.027 192.12C929.787 188.52 924.927 183.18 921.447 176.1C917.967 168.9 916.227 160.14 916.227 149.82C916.227 138.9 918.027 129.72 921.627 122.28C925.347 114.84 930.447 109.2 936.927 105.36C943.407 101.4 950.787 99.42 959.067 99.42Z" fill="#16A34A"/>
</svg>
